<?xml version="1.0" standalone="no"?>
<!DOCTYPE svg PUBLIC "-//W3C//DTD SVG 20010904//EN"
 "http://www.w3.org/TR/2001/REC-SVG-20010904/DTD/svg10.dtd">
<svg version="1.0" xmlns="http://www.w3.org/2000/svg"
 width="240.000000pt" height="240.000000pt" viewBox="0 0 240.000000 240.000000"
 preserveAspectRatio="xMidYMid meet">

<g transform="translate(0.000000,240.000000) scale(0.100000,-0.100000)"
fill="#000000" stroke="none">
<path d="M983 2050 c-262 -59 -498 -251 -608 -494 -60 -132 -70 -185 -69 -356
0 -142 2 -162 28 -240 35 -105 66 -167 121 -245 135 -190 347 -323 579 -364
88 -16 266 -13 354 5 279 58 525 255 638 511 91 206 89 479 -5 686 -114 252
-357 445 -633 501 -106 22 -299 20 -405 -4z m407 -54 c30 -9 93 -35 140 -58
l85 -43 -172 -3 -173 -2 0 -275 0 -275 -70 0 -70 0 0 275 0 275 -177 0 -178 1
60 34 c65 38 158 72 233 85 66 12 256 4 322 -14z"/>
</g>
</svg>
